<svg version="1.1" xmlns="http://www.w3.org/2000/svg" xmlns:xlink="http://www.w3.org/1999/xlink" width="26px" height="26px" viewBox="0,0,256,256"><g fill="#473c38" fill-rule="nonzero" stroke="none" stroke-width="1" stroke-linecap="butt" stroke-linejoin="miter" stroke-miterlimit="10" stroke-dasharray="" stroke-dashoffset="0" font-family="none" font-weight="none" font-size="none" text-anchor="none" style="mix-blend-mode: normal"><g transform="translate(0,3.36905) scale(9.84615,9.84615)"><g><g><path d="M13,0c-7.2,0 -13,5.8 -13,13c0,5.8 3.7,10.6 8.9,12.3c0.6,0.1 0.9,-0.3 0.9,-0.6c0,-0.3 0,-1.3 0,-2.4c-3.3,0.6 -4.1,-0.8 -4.4,-1.5c-0.1,-0.4 -0.8,-1.5 -1.3,-1.8c-0.5,-0.2 -1.1,-0.8 0,-0.9c1,0 1.8,0.9 2,1.3c1.2,2 3,1.4 3.8,1.1c0.1,-0.8 0.5,-1.4 0.8,-1.7c-2.9,-0.3 -5.9,-1.4 -5.9,-6.4c0,-1.4 0.5,-2.6 1.3,-3.5c-0.2,-0.4 -0.6,-1.7 0.1,-3.5c0,0 1.1,-0.3 3.6,1.3c1,-0.3 2.1,-0.4 3.3,-0.4c1.1,0 2.2,0.1 3.3,0.4c2.5,-1.7 3.6,-1.3 3.6,-1.3c0.7,1.8 0.3,3.1 0.1,3.4c0.8,0.9 1.3,2.1 1.3,3.5c0,5 -3,6.1 -5.9,6.4c0.5,0.4 0.9,1.2 0.9,2.4c0,1.7 0,3.1 0,3.6c0,0.3 0.2,0.7 0.9,0.6c5,-1.7 8.7,-6.6 8.7,-12.3c0,-7.2 -5.8,-13 -13,-13z"></path></g></g></g></g></svg>